With: Dan Aykroyd, John Goodman en Joe Morton

Achttien jaar na de eerste missie van God van de Blues Brothers komt Elwood Blues (Dan Aykroyd) vrij en ontdekt dat er al die jaren veel is veranderd. Zijn maatje Jack is dood, zijn band is uit elkaar en het weeshuis waar hij is opgegroeid, is gesloopt. Elwood ontdekt al snel dat hij een nieuwe missie te volbrengen heeft: hij moet de band opnieuw bij elkaar halen, ditmaal met de hulp van een barman vol soul, (John Goodman), hij moet meedoen aan de Battle of the Bands bij Queen Moussette (Erykah Badu) en hij moet een nogal eigenwijs weeskind genaamd Buster op het juiste pad brengen. Temidden van alle chaos moet hij de politie bewijzen dat er magie in zijn muziek zit... en dat er achter de Blues Brothers-gekte een mysterieus en uniek recept schuilt.

Elwood must reunite the old band, with a few new members, and go on another "Mission from God." 

------------------ Dutch Friends ------------------
You can find my Friends at: http://www.Film-Test.nl 
------ They got my dutchs subs ---- and more ------

General:

Complete name                    : Blues Brothers 2000\Blues Brothers 2000.avi
Format                           : AVI
Format/Info                      : Audio Video Interleave
File size                        : 1.76 GiB
Duration                         : 1h 58mn
Overall bit rate                 : 2 130 Kbps

Video:

Format                           : MPEG-4 Visual
Format profile                   : Simple@L3
Format settings, BVOP            : No
Format settings, QPel            : No
Format settings, GMC             : No warppoints
Format settings, Matrix          : Default (H.263)
Codec ID                         : XVID
Codec ID/Hint                    : XviD
Duration                         : 1h 58mn
Bit rate                         : 1 735 Kbps
Width                            : 652 pixels
Height                           : 352 pixels
Display aspect ratio             : 1.852
Frame rate                       : 25.000 fps
Color space                      : YUV
Chroma subsampling               : 4:2:0
Bit depth                        : 8 bits
Scan type                        : Progressive
Bits/(Pixel*Frame)               : 0.302
Stream size                      : 1.44 GiB (81%)
Writing library                  : XviD 1.1.2 (UTC 2006-11-01)

Audio:

Format                           : AC-3
Format/Info                      : Audio Coding 3
Mode extension                   : CM (complete main)
Codec ID                         : 2000
Duration                         : 1h 58mn
Bit rate mode                    : Constant
Bit rate                         : 384 Kbps
Channel(s)                       : 6 channels
Channel positions                : Front: L C R, Side: L R, LFE
Sampling rate                    : 48.0 KHz
Bit depth                        : 16 bits
Stream size                      : 326 MiB (18%)
Alignment                        : Aligned on interleaves
Interleave, duration             : 32 ms (0.80 video frame)
Interleave, preload duration     : 64 ms

